<svg width="19" height="19" viewBox="0 0 19 19" fill="none" xmlns="http://www.w3.org/2000/svg">
<path d="M16.8472 14.5856C16.5718 15.2218 16.2459 15.8073 15.8682 16.3457C15.3535 17.0796 14.932 17.5877 14.6072 17.8698C14.1037 18.3328 13.5642 18.57 12.9865 18.5835C12.5717 18.5835 12.0716 18.4655 11.4894 18.2261C10.9053 17.9878 10.3685 17.8698 9.87766 17.8698C9.36289 17.8698 8.81081 17.9878 8.2203 18.2261C7.62888 18.4655 7.15244 18.5902 6.78818 18.6026C6.23419 18.6262 5.682 18.3823 5.13082 17.8698C4.77903 17.5629 4.33901 17.0369 3.81188 16.2918C3.24631 15.496 2.78134 14.5733 2.41707 13.5213C2.02696 12.385 1.83139 11.2846 1.83139 10.2194C1.83139 8.9991 2.09507 7.94664 2.6232 7.06469C3.03827 6.35628 3.59046 5.79745 4.28157 5.38722C4.97268 4.97698 5.71943 4.76793 6.5236 4.75455C6.96362 4.75455 7.54065 4.89066 8.25772 5.15816C8.97277 5.42655 9.4319 5.56266 9.6332 5.56266C9.78369 5.56266 10.2937 5.40351 11.1584 5.08623C11.976 4.79198 12.6661 4.67015 13.2315 4.71814C14.7634 4.84177 15.9143 5.44566 16.6797 6.53363C15.3096 7.36377 14.6319 8.52648 14.6454 10.0181C14.6578 11.1799 15.0792 12.1467 15.9076 12.9143C16.283 13.2706 16.7022 13.546 17.1686 13.7415C17.0675 14.0349 16.9607 14.3159 16.8472 14.5856ZM13.3338 0.760083C13.3338 1.67071 13.0011 2.52095 12.338 3.30793C11.5377 4.2435 10.5698 4.78411 9.52013 4.69881C9.50676 4.58956 9.499 4.47458 9.499 4.35376C9.499 3.47956 9.87957 2.54399 10.5554 1.77904C10.8928 1.39174 11.3219 1.06969 11.8423 0.812795C12.3616 0.55973 12.8527 0.419779 13.3147 0.395813C13.3281 0.517549 13.3338 0.639293 13.3338 0.760071V0.760083Z" fill="white"/>
</svg>
