<svg width="18" height="18" viewBox="0 0 18 18" fill="none" xmlns="http://www.w3.org/2000/svg">
<path d="M4.71667 3.00841V1.29175" stroke="white" stroke-width="1.5" stroke-linecap="round" stroke-linejoin="round"/>
<path d="M13.2833 3.00841V1.29175" stroke="white" stroke-width="1.5" stroke-linecap="round" stroke-linejoin="round"/>
<path d="M3.95835 2.15015C2.48335 2.15015 1.29169 3.34181 1.29169 4.81681V14.0501C1.29169 15.5251 2.48335 16.7168 3.95835 16.7168H14.05C15.525 16.7168 16.7167 15.5251 16.7167 14.0501V4.81681C16.7084 3.34181 15.5167 2.15015 14.0417 2.15015H3.95835Z" stroke="white" stroke-width="1.5" stroke-linecap="round" stroke-linejoin="round"/>
<path d="M1.29169 5.5835H16.7084" stroke="white" stroke-width="1.5" stroke-linecap="round" stroke-linejoin="round"/>
<path fill-rule="evenodd" clip-rule="evenodd" d="M14 9.00016C13.5398 9.00016 13.1667 8.62707 13.1667 8.16683C13.1667 7.70659 13.5398 7.3335 14 7.3335C14.4603 7.3335 14.8334 7.70659 14.8334 8.16683C14.8334 8.62707 14.4603 9.00016 14 9.00016Z" fill="white"/>
<path fill-rule="evenodd" clip-rule="evenodd" d="M10.6666 9.00016C10.2064 9.00016 9.83331 8.62707 9.83331 8.16683C9.83331 7.70659 10.2064 7.3335 10.6666 7.3335C11.1269 7.3335 11.5 7.70659 11.5 8.16683C11.5 8.62707 11.1269 9.00016 10.6666 9.00016Z" fill="white"/>
<path fill-rule="evenodd" clip-rule="evenodd" d="M7.33333 9.00016C6.8731 9.00016 6.5 8.62707 6.5 8.16683C6.5 7.70659 6.8731 7.3335 7.33333 7.3335C7.79357 7.3335 8.16667 7.70659 8.16667 8.16683C8.16667 8.62707 7.79357 9.00016 7.33333 9.00016Z" fill="white"/>
<path fill-rule="evenodd" clip-rule="evenodd" d="M4.00002 9.00016C3.53978 9.00016 3.16669 8.62707 3.16669 8.16683C3.16669 7.70659 3.53978 7.3335 4.00002 7.3335C4.46026 7.3335 4.83335 7.70659 4.83335 8.16683C4.83335 8.62707 4.46026 9.00016 4.00002 9.00016Z" fill="white"/>
<path fill-rule="evenodd" clip-rule="evenodd" d="M14 11.9084C13.5398 11.9084 13.1667 11.5353 13.1667 11.075C13.1667 10.6148 13.5398 10.2417 14 10.2417C14.4603 10.2417 14.8334 10.6148 14.8334 11.075C14.8334 11.5353 14.4603 11.9084 14 11.9084Z" fill="white"/>
<path fill-rule="evenodd" clip-rule="evenodd" d="M10.6666 11.9084C10.2064 11.9084 9.83331 11.5353 9.83331 11.075C9.83331 10.6148 10.2064 10.2417 10.6666 10.2417C11.1269 10.2417 11.5 10.6148 11.5 11.075C11.5 11.5353 11.1269 11.9084 10.6666 11.9084Z" fill="white"/>
<path fill-rule="evenodd" clip-rule="evenodd" d="M7.33333 11.9084C6.8731 11.9084 6.5 11.5353 6.5 11.075C6.5 10.6148 6.8731 10.2417 7.33333 10.2417C7.79357 10.2417 8.16667 10.6148 8.16667 11.075C8.16667 11.5353 7.79357 11.9084 7.33333 11.9084Z" fill="white"/>
<path fill-rule="evenodd" clip-rule="evenodd" d="M4.00002 11.9084C3.53978 11.9084 3.16669 11.5353 3.16669 11.075C3.16669 10.6148 3.53978 10.2417 4.00002 10.2417C4.46026 10.2417 4.83335 10.6148 4.83335 11.075C4.83335 11.5353 4.46026 11.9084 4.00002 11.9084Z" fill="white"/>
<path fill-rule="evenodd" clip-rule="evenodd" d="M10.6666 14.8085C10.2064 14.8085 9.83331 14.4354 9.83331 13.9752C9.83331 13.5149 10.2064 13.1418 10.6666 13.1418C11.1269 13.1418 11.5 13.5149 11.5 13.9752C11.5 14.4354 11.1269 14.8085 10.6666 14.8085Z" fill="white"/>
<path fill-rule="evenodd" clip-rule="evenodd" d="M7.33333 14.8085C6.8731 14.8085 6.5 14.4354 6.5 13.9752C6.5 13.5149 6.8731 13.1418 7.33333 13.1418C7.79357 13.1418 8.16667 13.5149 8.16667 13.9752C8.16667 14.4354 7.79357 14.8085 7.33333 14.8085Z" fill="white"/>
<path fill-rule="evenodd" clip-rule="evenodd" d="M4.00002 14.8085C3.53978 14.8085 3.16669 14.4354 3.16669 13.9752C3.16669 13.5149 3.53978 13.1418 4.00002 13.1418C4.46026 13.1418 4.83335 13.5149 4.83335 13.9752C4.83335 14.4354 4.46026 14.8085 4.00002 14.8085Z" fill="white"/>
</svg>
