<svg width="58" height="58" viewBox="0 0 58 58" fill="none" xmlns="http://www.w3.org/2000/svg">
<g filter="url(#filter0_d_162_579)">
<path d="M21.98 29.5311V26.6819C21.98 26.2377 21.6116 25.8694 21.1675 25.8694C20.7233 25.8694 20.355 26.2377 20.355 26.6819V29.5311H18.9467C18.5025 29.5311 18.1342 29.8994 18.1342 30.3436V36.7569C18.1342 37.2011 18.5025 37.5694 18.9467 37.5694H20.355V39.0536C20.355 39.4977 20.7233 39.8661 21.1675 39.8661C21.6116 39.8661 21.98 39.4977 21.98 39.0536V37.5694H23.3883C23.8325 37.5694 24.2008 37.2011 24.2008 36.7569V30.3436C24.2008 29.8994 23.8325 29.5311 23.3883 29.5311H21.98Z" fill="white"/>
</g>
<g filter="url(#filter1_d_162_579)">
<path d="M29.8016 23.3015V19.9648C29.8016 19.5207 29.4333 19.1523 28.9891 19.1523C28.545 19.1523 28.1766 19.5207 28.1766 19.9648V23.3015H26.8333C26.3891 23.3015 26.0208 23.6698 26.0208 24.114V34.5357C26.0208 34.9798 26.3891 35.3482 26.8333 35.3482H28.1875V36.8323C28.1875 37.2765 28.5558 37.6448 29 37.6448C29.4441 37.6448 29.8125 37.2765 29.8125 36.8323V35.3482H31.1558C31.6 35.3482 31.9683 34.9798 31.9683 34.5357V24.114C31.9683 23.6698 31.6 23.3015 31.1558 23.3015H29.8016Z" fill="white"/>
</g>
<g filter="url(#filter2_d_162_579)">
<path d="M37.58 20.3767V19.0117C37.58 18.5676 37.2117 18.1992 36.7675 18.1992C36.3234 18.1992 35.955 18.5676 35.955 19.0117V20.3767H34.5467C34.1025 20.3767 33.7342 20.7451 33.7342 21.1892V31.4159C33.7342 31.8601 34.1025 32.2284 34.5467 32.2284H35.955V34.5359C35.955 34.9801 36.3234 35.3484 36.7675 35.3484C37.2117 35.3484 37.58 34.9801 37.58 34.5359V32.2284H38.9884C39.4325 32.2284 39.8009 31.8601 39.8009 31.4159V21.1892C39.8009 20.7451 39.4325 20.3767 38.9884 20.3767H37.58Z" fill="white"/>
</g>
<defs>
<filter id="filter0_d_162_579" x="0.134155" y="7.86938" width="42.0667" height="49.9966" filterUnits="userSpaceOnUse" color-interpolation-filters="sRGB">
<feFlood flood-opacity="0" result="BackgroundImageFix"/>
<feColorMatrix in="SourceAlpha" type="matrix" values="0 0 0 0 0 0 0 0 0 0 0 0 0 0 0 0 0 0 127 0" result="hardAlpha"/>
<feOffset/>
<feGaussianBlur stdDeviation="9"/>
<feComposite in2="hardAlpha" operator="out"/>
<feColorMatrix type="matrix" values="0 0 0 0 1 0 0 0 0 1 0 0 0 0 1 0 0 0 0.39 0"/>
<feBlend mode="normal" in2="BackgroundImageFix" result="effect1_dropShadow_162_579"/>
<feBlend mode="normal" in="SourceGraphic" in2="effect1_dropShadow_162_579" result="shape"/>
</filter>
<filter id="filter1_d_162_579" x="8.02081" y="1.15234" width="41.9475" height="54.4924" filterUnits="userSpaceOnUse" color-interpolation-filters="sRGB">
<feFlood flood-opacity="0" result="BackgroundImageFix"/>
<feColorMatrix in="SourceAlpha" type="matrix" values="0 0 0 0 0 0 0 0 0 0 0 0 0 0 0 0 0 0 127 0" result="hardAlpha"/>
<feOffset/>
<feGaussianBlur stdDeviation="9"/>
<feComposite in2="hardAlpha" operator="out"/>
<feColorMatrix type="matrix" values="0 0 0 0 1 0 0 0 0 1 0 0 0 0 1 0 0 0 0.39 0"/>
<feBlend mode="normal" in2="BackgroundImageFix" result="effect1_dropShadow_162_579"/>
<feBlend mode="normal" in="SourceGraphic" in2="effect1_dropShadow_162_579" result="shape"/>
</filter>
<filter id="filter2_d_162_579" x="15.7342" y="0.199219" width="42.0667" height="53.1492" filterUnits="userSpaceOnUse" color-interpolation-filters="sRGB">
<feFlood flood-opacity="0" result="BackgroundImageFix"/>
<feColorMatrix in="SourceAlpha" type="matrix" values="0 0 0 0 0 0 0 0 0 0 0 0 0 0 0 0 0 0 127 0" result="hardAlpha"/>
<feOffset/>
<feGaussianBlur stdDeviation="9"/>
<feComposite in2="hardAlpha" operator="out"/>
<feColorMatrix type="matrix" values="0 0 0 0 1 0 0 0 0 1 0 0 0 0 1 0 0 0 0.39 0"/>
<feBlend mode="normal" in2="BackgroundImageFix" result="effect1_dropShadow_162_579"/>
<feBlend mode="normal" in="SourceGraphic" in2="effect1_dropShadow_162_579" result="shape"/>
</filter>
</defs>
</svg>
