<svg width="43" height="43" viewBox="0 0 43 43" fill="none" xmlns="http://www.w3.org/2000/svg">
<path d="M21.5002 15.0518C18.8306 15.0518 16.6627 16.503 16.6627 18.2768C16.6627 20.0505 18.8306 21.5018 21.5002 21.5018C24.1697 21.5018 26.3377 22.953 26.3377 24.7268C26.3377 26.5005 24.1697 27.9518 21.5002 27.9518" stroke="white" stroke-width="1.8" stroke-linecap="round" stroke-linejoin="round"/>
<path d="M21.5 15.0518V27.9518" stroke="white" stroke-width="1.8" stroke-linecap="round" stroke-linejoin="round"/>
<path d="M25.6925 16.6643L21.5 15.0518C23.2917 15.0518 24.8504 15.6968 25.6925 16.6643Z" stroke="white" stroke-width="1.8" stroke-linecap="round" stroke-linejoin="round"/>
<path d="M21.5 15.05V13.4375" stroke="white" stroke-width="1.8" stroke-linecap="round" stroke-linejoin="round"/>
<path d="M21.5 27.9482V29.5607" stroke="white" stroke-width="1.8" stroke-linecap="round" stroke-linejoin="round"/>
<path d="M17.3074 26.3345L21.4999 27.947C19.7082 27.947 18.1495 27.302 17.3074 26.3345Z" stroke="white" stroke-width="1.8" stroke-linecap="round" stroke-linejoin="round"/>
<path d="M36.3887 27.6633C35.5825 29.6163 34.3821 31.39 32.895 32.895C31.39 34.4 29.6162 35.5825 27.6633 36.3887C25.7104 37.2129 23.6142 37.625 21.5 37.625C19.3858 37.625 17.2896 37.2129 15.3367 36.3887C13.3838 35.5646 11.61 34.3821 10.105 32.895C8.6 31.39 7.4175 29.6163 6.61125 27.6633C5.78708 25.7104 5.375 23.6142 5.375 21.5C5.375 17.2179 7.07708 13.115 10.105 10.105C13.115 7.07708 17.2179 5.375 21.5 5.375C25.7821 5.375 29.885 7.07708 32.895 10.105C35.9229 13.115 37.625 17.2179 37.625 21.5C37.625 23.6142 37.2129 25.7104 36.3887 27.6633Z" stroke="white" stroke-width="1.8" stroke-linecap="round" stroke-linejoin="round"/>
</svg>
