<svg width="56" height="58" viewBox="0 0 56 58" fill="none" xmlns="http://www.w3.org/2000/svg">
<g filter="url(#filter0_d_162_593)">
<path fill-rule="evenodd" clip-rule="evenodd" d="M34.1425 22.0882C33.85 21.5899 33.2975 21.2757 32.6259 21.254C32.0192 21.254 31.445 21.5465 31.1309 22.0015L30.73 22.5757L28.8775 19.0657C28.3034 18.0907 26.7759 17.8632 25.9092 18.7624L21.0884 24.1682C19.3659 26.0424 18.4234 28.4149 18.4234 30.8524C18.4234 31.2749 18.4884 31.7841 18.6509 32.5316C18.6834 32.6616 18.7159 32.8024 18.7592 32.9541L18.8134 33.2032C19.81 36.8974 23.3634 39.5624 27.7075 39.8332H27.7725C32.225 39.8332 36.19 37.0599 37.1759 33.2465C37.23 33.0949 37.2625 32.9432 37.3059 32.7915C37.3275 32.7049 37.3492 32.6182 37.3925 32.4557C37.5225 31.8057 37.5767 31.3182 37.5767 30.9282V30.7874C37.5767 28.2741 36.3309 25.4357 35.15 23.6265L34.1425 22.0882ZM30.8275 35.6516L30.8059 35.749C30.5892 36.5615 29.9609 37.2441 29.0834 37.6232C28.6717 37.8074 28.2384 37.9049 27.7834 37.9374H27.74C27.4042 37.9374 27.025 37.8182 26.5809 37.6232C25.7142 37.2441 25.0859 36.5616 24.8367 35.6516C24.815 35.5649 24.8042 35.4782 24.7934 35.4673C24.75 35.2398 24.7175 35.0774 24.7175 34.9691C24.7175 34.1349 25.0534 33.3224 25.6492 32.6724L27.8375 30.224L30.0259 32.6832C30.6217 33.3224 30.9467 34.1349 30.9467 34.9691C30.9467 35.0774 30.925 35.2507 30.8925 35.4132C30.8709 35.489 30.8492 35.5649 30.8275 35.6516Z" fill="white"/>
</g>
<defs>
<filter id="filter0_d_162_593" x="0.42337" y="0.197266" width="55.1533" height="57.636" filterUnits="userSpaceOnUse" color-interpolation-filters="sRGB">
<feFlood flood-opacity="0" result="BackgroundImageFix"/>
<feColorMatrix in="SourceAlpha" type="matrix" values="0 0 0 0 0 0 0 0 0 0 0 0 0 0 0 0 0 0 127 0" result="hardAlpha"/>
<feOffset/>
<feGaussianBlur stdDeviation="9"/>
<feComposite in2="hardAlpha" operator="out"/>
<feColorMatrix type="matrix" values="0 0 0 0 1 0 0 0 0 1 0 0 0 0 1 0 0 0 0.39 0"/>
<feBlend mode="normal" in2="BackgroundImageFix" result="effect1_dropShadow_162_593"/>
<feBlend mode="normal" in="SourceGraphic" in2="effect1_dropShadow_162_593" result="shape"/>
</filter>
</defs>
</svg>
