<svg width="26" height="26" viewBox="0 0 26 26" fill="none" xmlns="http://www.w3.org/2000/svg">
<path d="M11.2666 22.3709C10.205 21.905 9.38166 21.0491 9.08916 19.955C9.05666 19.8358 9.03499 19.7275 9.01332 19.63C8.95915 19.3483 8.92664 19.1317 8.92664 18.9583C8.92664 17.9292 9.32749 16.9217 10.0642 16.12L12.2958 13.6175C12.2958 13.6175 12.5775 13.3033 12.8483 13C13.13 13.3142 13.4008 13.6175 13.4008 13.6175L15.6325 16.12C16.3691 16.9217 16.77 17.9292 16.77 18.9583C16.77 19.1317 16.7375 19.3483 16.6833 19.63C16.6508 19.7275 16.6291 19.8358 16.6075 19.955C16.315 21.0491 15.4917 21.905 14.43 22.3709C13.9208 22.5767 13.39 22.7067 12.8375 22.75C12.285 22.7825 11.7433 22.5875 11.2666 22.3709Z" stroke="white" stroke-width="1.5" stroke-linecap="round" stroke-linejoin="round"/>
<path d="M13.1733 3.47761C13 3.18511 12.6641 2.97925 12.2741 2.97925C11.9925 2.97925 11.7 3.10923 11.5158 3.30423L6.69498 8.7209C5.11332 10.4434 4.24667 12.6209 4.24667 14.8526C4.24667 15.2209 4.31167 15.6867 4.44167 16.2934C4.50667 16.5101 4.55 16.7267 4.615 16.9867C5.53584 20.4209 8.88333 22.7717 12.7292 23.0101C16.7917 23.0317 20.4858 20.5834 21.4175 16.9976C21.4933 16.7484 21.5475 16.4992 21.6125 16.2934C21.7208 15.7301 21.7858 15.2751 21.7858 14.9176V14.7768C21.7858 12.4259 20.5941 9.77175 19.4891 8.06008L18.46 6.48924C18.2975 6.2184 17.9833 6.06678 17.6367 6.05594C17.3008 6.05594 16.9866 6.20755 16.8133 6.46755L15.6433 8.12508C15.6217 8.12508 14.495 5.99093 13.7691 4.61509C13.4225 3.96509 13.1733 3.47761 13.1733 3.47761Z" stroke="white" stroke-width="1.5" stroke-linecap="round" stroke-linejoin="round"/>
</svg>
