<svg width="19" height="23" viewBox="0 0 19 23" fill="none" xmlns="http://www.w3.org/2000/svg">
<path fill-rule="evenodd" clip-rule="evenodd" d="M18.62 11.7159C18.62 11.0423 18.5595 10.3945 18.4473 9.77271H9.5V13.4475H14.6127C14.3925 14.635 13.7232 15.6411 12.717 16.3148V18.6984H15.7873C17.5836 17.0445 18.62 14.6091 18.62 11.7159Z" fill="#4285F4"/>
<path fill-rule="evenodd" clip-rule="evenodd" d="M9.49995 20.9999C12.065 20.9999 14.2154 20.1492 15.7872 18.6983L12.717 16.3146C11.8663 16.8846 10.7781 17.2215 9.49995 17.2215C7.02563 17.2215 4.93132 15.5503 4.18427 13.3049H1.01041V15.7662C2.57359 18.871 5.78632 20.9999 9.49995 20.9999Z" fill="#34A853"/>
<path fill-rule="evenodd" clip-rule="evenodd" d="M4.18432 13.3051C3.99432 12.7351 3.88636 12.1262 3.88636 11.5001C3.88636 10.8739 3.99432 10.2651 4.18432 9.69507V7.2337H1.01045C0.367045 8.5162 0 9.96711 0 11.5001C0 13.033 0.367045 14.4839 1.01045 15.7664L4.18432 13.3051Z" fill="#FBBC05"/>
<path fill-rule="evenodd" clip-rule="evenodd" d="M9.49995 5.77841C10.8947 5.77841 12.147 6.25773 13.1315 7.19909L15.8563 4.47432C14.2111 2.94136 12.0606 2 9.49995 2C5.78632 2 2.57359 4.12886 1.01041 7.23364L4.18427 9.695C4.93132 7.44955 7.02563 5.77841 9.49995 5.77841Z" fill="#EA4335"/>
</svg>
