<svg width="26" height="26" viewBox="0 0 26 26" fill="none" xmlns="http://www.w3.org/2000/svg">
<path d="M9.98834 23.0209V16.575C9.98834 15.9792 10.4758 15.4917 11.0717 15.4917H14.9283C15.5242 15.4917 16.0117 15.9792 16.0117 16.575V23.0209V23.0209H9.98834Z" stroke="white" stroke-width="1.5" stroke-linecap="round" stroke-linejoin="round"/>
<path d="M23.0209 19.6082C23.0209 21.4932 21.5692 23.0207 19.7709 23.0207H6.22919C4.43085 23.0207 2.97919 21.4932 2.97919 19.6082V12.3391C2.97919 11.3207 3.40169 10.3674 4.14919 9.71738L10.92 3.76988C12.1225 2.70822 13.8775 2.70822 15.08 3.76988L21.8509 9.71738C22.5984 10.3674 23.0209 11.3207 23.0209 12.3391V19.6082Z" stroke="white" stroke-width="1.5" stroke-linecap="round" stroke-linejoin="round"/>
</svg>
