<svg width="26" height="26" viewBox="0 0 26 26" fill="none" xmlns="http://www.w3.org/2000/svg">
<path d="M19.3809 23.0209H6.46752C4.53919 23.0209 2.97919 21.4609 2.97919 19.5326V6.46758C2.97919 4.53925 4.53919 2.97925 6.46752 2.97925H15.8925C17.81 2.97925 19.3809 4.53925 19.3809 6.46758V23.0209Z" stroke="white" stroke-width="1.5" stroke-linecap="round" stroke-linejoin="round"/>
<path d="M23.0208 20.7243V15.1667C23.0208 13.3251 21.385 11.8301 19.3808 11.8301" stroke="white" stroke-width="1.5" stroke-linecap="round" stroke-linejoin="round"/>
<path d="M15.3942 23.021H20.7783" stroke="white" stroke-width="1.5" stroke-linecap="round" stroke-linejoin="round"/>
<path d="M19.3808 18.2976V21.3526C19.3808 22.2734 20.1933 23.0209 21.2008 23.0209C22.2083 23.0209 23.0208 22.2734 23.0208 21.3526V18.2976" stroke="white" stroke-width="1.5" stroke-linecap="round" stroke-linejoin="round"/>
<path d="M7.42084 7.44238H15.21" stroke="white" stroke-width="1.5" stroke-linecap="round" stroke-linejoin="round"/>
<path d="M7.42084 13H15.21" stroke="white" stroke-width="1.5" stroke-linecap="round" stroke-linejoin="round"/>
<path d="M7.45337 18.5466H9.67421" stroke="white" stroke-width="1.5" stroke-linecap="round" stroke-linejoin="round"/>
</svg>
