<svg width="58" height="58" viewBox="0 0 58 58" fill="none" xmlns="http://www.w3.org/2000/svg">
<g filter="url(#filter0_d_162_585)">
<path fill-rule="evenodd" clip-rule="evenodd" d="M36.1934 22.4676C36.1934 20.0951 34.2542 18.1667 31.8925 18.1667H22.4675C20.095 18.1667 18.1667 20.0951 18.1667 22.4676V35.5326C18.1667 37.8942 20.095 39.8334 22.4675 39.8334H36.7784C36.8217 39.8334 36.865 39.8117 36.9084 39.8009C37.0059 39.8117 37.1034 39.8334 37.2009 39.8334C38.6525 39.8334 39.8334 38.7176 39.8334 37.3417V31.1559C39.8334 29.1193 38.2625 27.4401 36.1934 27.0826V22.4676ZM31.21 24.2551H23.4209C22.9659 24.2551 22.6084 23.8867 22.6084 23.4426C22.6084 22.9876 22.9659 22.6301 23.4209 22.6301H31.21C31.6542 22.6301 32.0225 22.9876 32.0225 23.4426C32.0225 23.8867 31.6542 24.2551 31.21 24.2551ZM31.21 28.1876C31.6542 28.1876 32.0225 28.5451 32.0225 29.0001C32.0225 29.4442 31.6542 29.8126 31.21 29.8126H23.4209C22.9659 29.8126 22.6084 29.4442 22.6084 29.0001C22.6084 28.5451 22.9659 28.1876 23.4209 28.1876H31.21ZM25.6742 35.3592H23.4534C22.9984 35.3592 22.6409 34.9909 22.6409 34.5467C22.6409 34.0917 22.9984 33.7342 23.4534 33.7342H25.6742C26.1292 33.7342 26.4867 34.0917 26.4867 34.5467C26.4867 34.9909 26.1292 35.3592 25.6742 35.3592ZM37.2009 38.2084C36.6375 38.2084 36.1934 37.8184 36.1934 37.3417V28.7401C37.3525 29.0542 38.2084 30.0184 38.2084 31.1559V37.3417C38.2084 37.8184 37.7534 38.2084 37.2009 38.2084Z" fill="white"/>
</g>
<defs>
<filter id="filter0_d_162_585" x="0.166687" y="0.166748" width="57.6667" height="57.6667" filterUnits="userSpaceOnUse" color-interpolation-filters="sRGB">
<feFlood flood-opacity="0" result="BackgroundImageFix"/>
<feColorMatrix in="SourceAlpha" type="matrix" values="0 0 0 0 0 0 0 0 0 0 0 0 0 0 0 0 0 0 127 0" result="hardAlpha"/>
<feOffset/>
<feGaussianBlur stdDeviation="9"/>
<feComposite in2="hardAlpha" operator="out"/>
<feColorMatrix type="matrix" values="0 0 0 0 1 0 0 0 0 1 0 0 0 0 1 0 0 0 0.39 0"/>
<feBlend mode="normal" in2="BackgroundImageFix" result="effect1_dropShadow_162_585"/>
<feBlend mode="normal" in="SourceGraphic" in2="effect1_dropShadow_162_585" result="shape"/>
</filter>
</defs>
</svg>
