<svg width="30" height="30" viewBox="0 0 30 30" fill="none" xmlns="http://www.w3.org/2000/svg">
<path d="M6.625 11.8125C6.625 17.5375 14.125 25.9625 14.4375 26.3125C14.7375 26.65 15.2625 26.65 15.5625 26.3125C15.8875 25.9625 23.375 17.5375 23.375 11.8125C23.375 7.2 19.6125 3.4375 15 3.4375C10.3875 3.4375 6.625 7.2 6.625 11.8125Z" stroke="white" stroke-width="1.5" stroke-linecap="round" stroke-linejoin="round"/>
<path fill-rule="evenodd" clip-rule="evenodd" d="M15.4666 14.7379C13.8508 14.9951 12.3324 13.8938 12.0752 12.278C11.818 10.6622 12.9194 9.1438 14.5352 8.88661C16.151 8.62941 17.6694 9.73078 17.9266 11.3466C18.1837 12.9624 17.0824 14.4807 15.4666 14.7379Z" stroke="white" stroke-width="1.5" stroke-linecap="round" stroke-linejoin="round"/>
</svg>
