<svg width="26" height="26" viewBox="0 0 26 26" fill="none" xmlns="http://www.w3.org/2000/svg">
<path fill-rule="evenodd" clip-rule="evenodd" d="M12.7833 13.4984C11.3055 13.4984 10.1075 12.3004 10.1075 10.8226C10.1075 9.34474 11.3055 8.14673 12.7833 8.14673C14.2612 8.14673 15.4592 9.34474 15.4592 10.8226C15.4592 12.3004 14.2612 13.4984 12.7833 13.4984Z" stroke="white" stroke-width="1.5" stroke-linecap="round" stroke-linejoin="round"/>
<path d="M7.38834 20.8975V19.37C7.38834 17.5933 8.82916 16.1633 10.595 16.1633H15.3942C17.1708 16.1633 18.6008 17.6042 18.6008 19.37V20.8975" stroke="white" stroke-width="1.5" stroke-linecap="round" stroke-linejoin="round"/>
<path fill-rule="evenodd" clip-rule="evenodd" d="M13 23.0209C7.46564 23.0209 2.97916 18.5344 2.97916 13.0001C2.97916 7.46573 7.46564 2.97925 13 2.97925C18.5343 2.97925 23.0208 7.46573 23.0208 13.0001C23.0208 18.5344 18.5343 23.0209 13 23.0209Z" stroke="white" stroke-width="1.5" stroke-linecap="round" stroke-linejoin="round"/>
</svg>
