<svg width="58" height="58" viewBox="0 0 58 58" fill="none" xmlns="http://www.w3.org/2000/svg">
<g filter="url(#filter0_d_162_605)">
<path fill-rule="evenodd" clip-rule="evenodd" d="M18.1667 29.0001C18.1667 34.9692 23.0308 39.8334 29 39.8334C34.9692 39.8334 39.8333 34.9692 39.8333 29.0001C39.8333 23.0309 34.9692 18.1667 29 18.1667C23.0308 18.1667 18.1667 23.0309 18.1667 29.0001ZM32.2717 26.8226C32.2717 28.7401 30.7117 30.3109 28.7833 30.3109C26.8658 30.3109 25.3058 28.7401 25.3058 26.8226C25.3058 24.8942 26.8658 23.3342 28.7833 23.3342C30.7117 23.3342 32.2717 24.8942 32.2717 26.8226ZM33.7991 36.8542C32.4016 37.7209 30.755 38.2084 29 38.2084C27.245 38.2084 25.5983 37.7209 24.2008 36.8542C23.6158 36.4967 23.0633 36.0742 22.5758 35.5867V35.3809C22.5758 33.1601 24.385 31.3509 26.595 31.3509H31.405C33.615 31.3509 35.4241 33.1601 35.4241 35.3809V35.5867C34.9366 36.0742 34.3841 36.4967 33.7991 36.8542Z" fill="white"/>
</g>
<defs>
<filter id="filter0_d_162_605" x="0.166656" y="0.166748" width="57.6667" height="57.6667" filterUnits="userSpaceOnUse" color-interpolation-filters="sRGB">
<feFlood flood-opacity="0" result="BackgroundImageFix"/>
<feColorMatrix in="SourceAlpha" type="matrix" values="0 0 0 0 0 0 0 0 0 0 0 0 0 0 0 0 0 0 127 0" result="hardAlpha"/>
<feOffset/>
<feGaussianBlur stdDeviation="9"/>
<feComposite in2="hardAlpha" operator="out"/>
<feColorMatrix type="matrix" values="0 0 0 0 1 0 0 0 0 1 0 0 0 0 1 0 0 0 0.39 0"/>
<feBlend mode="normal" in2="BackgroundImageFix" result="effect1_dropShadow_162_605"/>
<feBlend mode="normal" in="SourceGraphic" in2="effect1_dropShadow_162_605" result="shape"/>
</filter>
</defs>
</svg>
